<svg xmlns="http://www.w3.org/2000/svg" width="96" height="48" viewBox="0 0 96 48">
  <rect width="96" height="48" fill="#79213C"/>
  <g fill="#8A2F46">
    <rect x="2" y="2" width="42" height="13" rx="1"/>
    <rect x="50" y="2" width="44" height="13" rx="1"/>
    <rect x="26" y="18" width="42" height="12" rx="1"/>
    <rect x="74" y="18" width="20" height="12" rx="1"/>
    <rect x="2" y="18" width="18" height="12" rx="1"/>
    <rect x="2" y="33" width="42" height="13" rx="1"/>
    <rect x="50" y="33" width="44" height="13" rx="1"/>
  </g>
  <g fill="none" stroke="#4A1124" stroke-width="1.5" opacity=".75">
    <path d="M0 16h96M0 32h96"/>
    <path d="M48 0v16M24 16v32M72 16v32M48 32v16"/>
  </g>
  <g fill="#E8871A" opacity=".24">
    <circle cx="13" cy="8" r="1.2"/>
    <circle cx="58" cy="9" r="1"/>
    <circle cx="37" cy="24" r="1.1"/>
    <circle cx="85" cy="39" r="1.2"/>
  </g>
</svg>
